<?xml version="1.0" encoding="UTF-8" standalone="no"?>
<svg
   viewBox="0 0 94.568785 56.65277"
   version="1.1"
   id="svg27"
   sodipodi:docname="Page 1.svg"
   inkscape:export-filename="Artboard 3 new.png"
   inkscape:export-xdpi="600"
   inkscape:export-ydpi="600"
   width="94.568787"
   height="56.652763"
   inkscape:version="1.2.2 (732a01da63, 2022-12-09)"
   xmlns:inkscape="http://www.inkscape.org/namespaces/inkscape"
   xmlns:sodipodi="http://sodipodi.sourceforge.net/DTD/sodipodi-0.dtd"
   xmlns="http://www.w3.org/2000/svg"
   xmlns:svg="http://www.w3.org/2000/svg">
  <sodipodi:namedview
     id="namedview29"
     pagecolor="#ffffff"
     bordercolor="#000000"
     borderopacity="0.25"
     inkscape:showpageshadow="2"
     inkscape:pageopacity="0.0"
     inkscape:pagecheckerboard="0"
     inkscape:deskcolor="#d1d1d1"
     showgrid="false"
     inkscape:zoom="20.703558"
     inkscape:cx="-149.03235"
     inkscape:cy="123.04648"
     inkscape:window-width="2560"
     inkscape:window-height="1373"
     inkscape:window-x="-9"
     inkscape:window-y="29"
     inkscape:window-maximized="1"
     inkscape:current-layer="g629" />
  <defs
     id="defs4">
    <style
       id="style2">.cls-1{isolation:isolate;}.cls-2,.cls-5{fill:#2e3191;}.cls-3,.cls-6{fill:#fff;}.cls-4{opacity:0.45;mix-blend-mode:multiply;}.cls-5{stroke:#2e3191;stroke-width:1.36px;}.cls-5,.cls-6{stroke-miterlimit:10;}.cls-6{stroke:#fff;stroke-width:0.36px;}</style>
  </defs>
  <g
     id="g1180"
     transform="rotate(-5.9598805,-5185.4148,-1402.0317)">
    <path
       id="path1176"
       style="isolation:isolate;fill:#000000;fill-opacity:1;stroke:none;stroke-opacity:1"
       class="cls-3"
       d="m -135.83845,536.53352 c -2.17445,0.006 -4.09408,0.0435 -6.47461,0.16406 -2.13327,0.0345 -4.25723,0.28476 -6.33985,0.74805 -1.74193,0.41847 -3.4355,1.02015 -5.05078,1.79492 -3.65259,1.81521 -6.7845,4.5274 -9.10351,7.88282 -2.49413,4.09829 -3.85128,8.78708 -3.93164,13.58398 -0.003,0.78741 0.0516,1.5727 0.13281,2.35547 a 6.7,6.7 0 0 1 -2.37695,0.52344 7.1,7.1 0 0 1 -4.1543,-1.27735 12.41,12.41 0 0 1 -3.38476,-3.52148 7.72,7.72 0 0 0 2.29882,4.74023 7.2,7.2 0 0 0 5.20313,2.07813 7,7 0 0 0 2.72265,-0.61914 c 0.41694,1.8388 1.03143,3.29074 1.28906,7.42969 0.50939,8.13023 0.0241,8.54944 0.42188,12.63281 0,0 -0.0802,3.63881 3.05469,4.00586 3.84913,-0.12848 6.66015,0.002 6.66015,0.002 2.68662,0.11639 3.93238,-0.7394 4.13868,-2.90625 0.10953,-2.55299 0.13447,-2.73184 0.11523,-3.78906 -0.0415,-1.23642 0.10698,-2.47248 0.43945,-3.66407 0.42077,-0.96836 1.09008,-1.80837 1.93946,-2.43554 1.1314,-0.70885 2.40762,-1.15347 3.73437,-1.30274 1.31898,-0.27307 2.65956,-0.43289 4.00586,-0.47461 1.55468,-0.0529 3.11062,0.0251 4.65234,0.23243 1.00533,0.0621 1.99996,0.2436 2.96289,0.53906 0.91537,0.28399 1.74124,0.79841 2.4004,1.49414 0.82628,0.96119 0.92996,2.06641 1.09766,4.22656 0.007,1.67162 0.12268,3.34162 0.34765,4.99805 0.0607,0.71032 0.34041,1.38339 0.80078,1.92773 0.69097,0.54693 1.53425,0.86802 2.41407,0.91797 1.02906,0.15756 2.06834,0.23369 3.10938,0.22656 1.1713,0.0846 2.34925,0.0587 3.51562,-0.0781 0.84083,-0.0659 1.63386,-0.41281 2.25586,-0.98242 0.67835,-0.74198 1.06362,-1.70578 1.08203,-2.71094 0.28742,-3.03111 0.2827,-5.44593 0.30274,-7.07813 0.0436,-2.97321 0.073,-4.48961 0.74023,-6.21484 0.4945,-1.51619 1.44005,-2.84644 2.70898,-3.8125 1.09074,-0.75019 2.35963,-1.19726 3.67969,-1.29687 1.48046,-0.0711 2.96228,0.11841 4.37695,0.56054 2.18654,0.53394 3.60881,0.984 4.275402,1.23828 2.975802,0.8837 6.141145,0.90216 9.12695,0.0527 3.849352,-1.18706 6.967079,-4.03266 8.5,-7.75781 0.322999,-0.94818 0.570105,-1.9211 0.740235,-2.90821 0.120999,-0.67184 0.174832,-1.20675 0.195312,-1.4707 0.0685,-2.04518 -0.005,-3.93771 -0.283203,-5.80859 -0.23808,-1.1264 -0.637434,-1.59868 -1.537109,-1.99024 -0.740979,-0.18118 -1.779922,0.0379 -2.38086,0.50781 -0.407437,0.44829 -0.647741,1.02408 -0.681641,1.62891 -0.0464,0.5723 -0.0364,1.1464 0.0293,1.7168 0.0387,1.37873 0.05078,1.37279 0.05078,1.71484 -0.0274,0.6742 -0.109594,1.34505 -0.246093,2.00586 -0.128349,0.65509 -0.305444,1.3001 -0.527344,1.92969 -0.266697,0.81588 -0.641126,1.59109 -1.115235,2.30664 -1.376613,1.52392 -3.466353,2.18938 -5.470703,1.74219 -2.412818,-0.50235 -3.695553,-2.52966 -4.611329,-3.96094 -0.91576,-1.43129 -1.31353,-3.12578 -2.306642,-6.40234 -0.37725,-1.31555 -0.55785,-2.13196 -1.10352,-3.74219 -0.36131,-1.13376 -0.7965,-2.24343 -1.30273,-3.32031 -0.94987,-1.9854 -2.33936,-3.7284 -4.0625,-5.09766 -0.45347,-0.35166 -2.13058,-1.61734 -6.38086,-2.52734 -1.95323,-0.43924 -3.65209,-0.63242 -11.43946,-0.73438 -1.14718,-0.0122 -3.76539,0.009 -8.9707,-0.0215 -0.80776,-0.003 -1.56034,-0.004 -2.28515,-0.002 z m 24.82813,8.66992 a 4.52,4.52 0 0 1 1.54883,0.24805 3.94,3.94 0 0 1 1.12695,0.60352 3.94,3.94 0 0 1 0.875,0.92968 8,8 0 0 0 -2.20312,-0.69335 5.52,5.52 0 0 0 -1.07422,-0.043 5.52,5.52 0 0 0 -1.0625,0.16601 7,7 0 0 0 -2.01172,0.99805 7,7 0 0 0 -1.59375,1.58594 4.52,4.52 0 0 1 0.51758,-1.48047 4.52,4.52 0 0 1 0.99023,-1.21485 4.52,4.52 0 0 1 1.34766,-0.80468 4.52,4.52 0 0 1 1.53906,-0.29493 z m -17.82618,0.375 a 9.93,9.93 0 0 1 0.65821,0.008 9.93,9.93 0 0 1 1.95312,0.28515 11,11 0 0 0 -2.80078,0.27735 11,11 0 0 0 -2.63867,0.98047 10.24,10.24 0 0 0 -2.16993,1.58593 10.24,10.24 0 0 0 -1.68359,2.09766 7.08,7.08 0 0 0 -0.70313,1.55469 7.08,7.08 0 0 0 -0.3125,1.67773 7.08,7.08 0 0 0 0.0977,1.70313 8.8,8.8 0 0 0 0.89844,2.40429 8.8,8.8 0 0 0 1.55469,2.04297 15.35,15.35 0 0 0 1.94726,1.87305 15.35,15.35 0 0 0 2.24415,1.50195 6.5,6.5 0 0 0 1.58007,0.60938 6.5,6.5 0 0 0 1.68555,0.17968 6.5,6.5 0 0 0 1.67383,-0.26171 8.88,8.88 0 0 0 1.62891,-0.73438 8.88,8.88 0 0 0 1.44726,-1.04687 8.88,8.88 0 0 0 1.21094,-1.31446 14.1,14.1 0 0 0 1.49805,-2.39843 14.1,14.1 0 0 0 0.99023,-2.6504 12.05,12.05 0 0 1 -0.49609,2.90821 12.05,12.05 0 0 1 -1.1875,2.70117 9.4,9.4 0 0 1 -1.21875,1.66211 9.4,9.4 0 0 1 -1.54882,1.35742 9.4,9.4 0 0 1 -1.81056,0.98633 7.27,7.27 0 0 1 -1.55664,0.42969 7.27,7.27 0 0 1 -1.61523,0.0762 8.8,8.8 0 0 1 -1.57813,-0.24414 8.8,8.8 0 0 1 -1.50586,-0.52735 16.52,16.52 0 0 1 -2.58985,-1.63086 16.52,16.52 0 0 1 -2.24218,-2.08007 10.62,10.62 0 0 1 -1.33399,-1.6543 10.62,10.62 0 0 1 -0.97656,-1.88477 10.62,10.62 0 0 1 -0.58203,-2.04297 8.43,8.43 0 0 1 -0.0254,-2.13281 8.43,8.43 0 0 1 0.51367,-2.06836 8.43,8.43 0 0 1 1.01367,-1.875 10.59,10.59 0 0 1 1.33399,-1.54883 10.59,10.59 0 0 1 1.60742,-1.26367 10.59,10.59 0 0 1 1.81836,-0.93164 9.93,9.93 0 0 1 1.91016,-0.49609 9.93,9.93 0 0 1 1.31054,-0.11524 z m 17.64063,4.29297 a 3.86,3.86 0 0 1 1.62305,0.31055 4.39,4.39 0 0 1 1.28125,0.85156 4.39,4.39 0 0 1 0.91016,1.24219 4.24,4.24 0 0 1 0.0996,0.21094 4.24,4.24 0 0 1 0.0879,0.21679 4.24,4.24 0 0 1 0.0762,0.22266 4.24,4.24 0 0 1 0.0644,0.22461 4.24,4.24 0 0 1 0.0508,0.22852 4.24,4.24 0 0 1 0.0391,0.23242 4.24,4.24 0 0 1 0.0254,0.23242 4.24,4.24 0 0 1 0.0137,0.23437 4.24,4.24 0 0 1 0,0.23438 4.24,4.24 0 0 1 -0.0137,0.23242 4.24,4.24 0 0 1 -0.0254,0.23438 4.24,4.24 0 0 1 -0.0391,0.23046 4.24,4.24 0 0 1 -0.0508,0.22852 3.86,3.86 0 0 1 -0.67188,1.41016 3.86,3.86 0 0 1 -1.17578,1.02929 4.1,4.1 0 0 1 -1.50781,0.49024 4.1,4.1 0 0 1 -1.58203,-0.11914 4.23,4.23 0 0 1 -1.45508,-0.74219 4.23,4.23 0 0 1 -1.06641,-1.24023 4.31,4.31 0 0 1 -0.51367,-1.58399 4.31,4.31 0 0 1 0.12695,-1.66016 4.11,4.11 0 0 1 0.78125,-1.49804 4.11,4.11 0 0 1 1.31641,-1.05664 3.86,3.86 0 0 1 1.60547,-0.39649 z m 0.99219,0.75977 a 3.9,3.9 0 0 0 -0.89648,0.0547 3.9,3.9 0 0 0 -1.25782,0.45898 3.55,3.55 0 0 0 -1.00781,0.82227 3.55,3.55 0 0 0 -0.64453,1.13281 3.36,3.36 0 0 0 -0.18164,1.30664 3.36,3.36 0 0 0 0.33594,1.27539 3.47,3.47 0 0 0 0.82226,1.06641 3.47,3.47 0 0 0 1.16797,0.67187 3.54,3.54 0 0 0 1.38867,0.16992 3.54,3.54 0 0 0 1.34375,-0.38086 3.79,3.79 0 0 0 1.13672,-0.83789 3.79,3.79 0 0 0 0.75,-1.19336 3.45,3.45 0 0 0 0.0762,-0.23242 3.45,3.45 0 0 0 0.0586,-0.24023 3.45,3.45 0 0 0 0.043,-0.24219 3.45,3.45 0 0 0 0.0254,-0.24414 3.45,3.45 0 0 0 0.006,-0.24609 3.45,3.45 0 0 0 -0.01,-0.2461 3.45,3.45 0 0 0 -0.0273,-0.24414 3.45,3.45 0 0 0 -0.0469,-0.24219 3.45,3.45 0 0 0 -0.0625,-0.23828 3.45,3.45 0 0 0 -0.0781,-0.23242 3.45,3.45 0 0 0 -0.0312,-0.0723 1.9023081,1.9023081 0 0 1 0.0996,0.94532 1.9023081,1.9023081 0 0 1 -2.16601,1.5957 1.9023081,1.9023081 0 0 1 -1.59571,-2.16797 1.9023081,1.9023081 0 0 1 1.89649,-1.61523 1.9023081,1.9023081 0 0 1 0.26953,0.0215 1.9023081,1.9023081 0 0 1 1.43164,1.06446 3.45,3.45 0 0 0 -0.11133,-0.21876 3.31,3.31 0 0 0 -0.96094,-1.07617 3.31,3.31 0 0 0 -1.32812,-0.5664 3.9,3.9 0 0 0 -0.44531,-0.0488 z m 2.91016,2.0664 a 1.9023081,1.9023081 0 0 0 -0.0566,-0.13867 3.45,3.45 0 0 1 0.0566,0.13867 z"
       inkscape:export-filename="path641.svg"
       inkscape:export-xdpi="96"
       inkscape:export-ydpi="96" />
    <circle
       class="cls-5"
       cx="-23.641766"
       cy="563.0545"
       r="0.84353793"
       id="circle1178"
       style="isolation:isolate;fill:#000000;fill-opacity:1;stroke:none;stroke-opacity:1"
       transform="rotate(8.6396818)" />
  </g>
</svg>
