<?xml version="1.0" encoding="UTF-8" standalone="no"?>
<svg
   viewBox="0 0 95.332556 52.563353"
   version="1.1"
   id="svg27"
   width="95.332558"
   height="52.563347"
   xmlns="http://www.w3.org/2000/svg"
   xmlns:svg="http://www.w3.org/2000/svg">
  <defs
     id="defs4">
    <style
       id="style2">.cls-1{isolation:isolate;}.cls-2,.cls-5{fill:#2e3191;}.cls-3,.cls-6{fill:#fff;}.cls-4{opacity:0.45;mix-blend-mode:multiply;}.cls-5{stroke:#2e3191;stroke-width:1.36px;}.cls-5,.cls-6{stroke-miterlimit:10;}.cls-6{stroke:#fff;stroke-width:0.36px;}</style>
  </defs>
  <path
     id="path641"
     style="isolation:isolate;fill:#000000;fill-opacity:1;stroke:none;stroke-opacity:1"
     class="cls-3"
     d="m 40.683586,0.00106106 c -2.17445,0.006 -4.09408,0.0435 -6.47461,0.16406 -2.13327,0.0345 -4.25723,0.28476 -6.33985,0.74805 -1.74193,0.41847004 -3.4355,1.02015004 -5.05078,1.79492004 -3.65259,1.81521 -6.7845,4.5274 -9.10351,7.8828199 -2.49413,4.09829 -3.8512797,8.78708 -3.9316397,13.58398 -0.003,0.78741 0.0516,1.5727 0.13281,2.35547 a 6.7,6.7 0 0 1 -2.37695,0.52344 7.1,7.1 0 0 1 -4.1543,-1.27735 A 12.41,12.41 0 0 1 -3.6902456e-6,22.254971 7.72,7.72 0 0 0 2.2988163,26.995201 a 7.2,7.2 0 0 0 5.20313,2.07813 7,7 0 0 0 2.7226497,-0.61914 c 0.41694,1.8388 1.03143,3.29074 1.28906,7.42969 0.50939,8.13023 0.0241,8.54944 0.42188,12.63281 0,0 -0.0802,3.63881 3.05469,4.00586 3.84913,-0.12848 6.66015,0.002 6.66015,0.002 2.68662,0.11639 3.93238,-0.7394 4.13868,-2.90625 0.10953,-2.55299 0.13447,-2.73184 0.11523,-3.78906 -0.0415,-1.23642 0.10698,-2.47248 0.43945,-3.66407 0.42077,-0.96836 1.09008,-1.80837 1.93946,-2.43554 1.1314,-0.70885 2.40762,-1.15347 3.73437,-1.30274 1.31898,-0.27307 2.65956,-0.43289 4.00586,-0.47461 1.55468,-0.0529 3.11062,0.0251 4.65234,0.23243 1.00533,0.0621 1.99996,0.2436 2.96289,0.53906 0.91537,0.28399 1.74124,0.79841 2.4004,1.49414 0.82628,0.96119 0.92996,2.06641 1.09766,4.22656 0.007,1.67162 0.12268,3.34162 0.34765,4.99805 0.0607,0.71032 0.34041,1.38339 0.80078,1.92773 0.69097,0.54693 1.53425,0.86802 2.41407,0.91797 1.02906,0.15756 2.06834,0.23369 3.10938,0.22656 1.1713,0.0846 2.34925,0.0587 3.51562,-0.0781 0.840825,-0.0659 1.633862,-0.41281 2.255859,-0.98242 0.678346,-0.74198 1.063621,-1.70578 1.082031,-2.71094 0.287419,-3.03111 0.282695,-5.44593 0.302735,-7.07813 0.0436,-2.97321 0.07299,-4.48961 0.740234,-6.21484 0.494498,-1.51619 1.440051,-2.84644 2.708985,-3.8125 1.090734,-0.75019 2.359625,-1.19726 3.679687,-1.29687 1.480454,-0.0711 2.962279,0.11841 4.376953,0.56054 2.186537,0.53394 3.608804,0.984 4.275391,1.23828 2.975805,0.8837 6.141148,0.90216 9.126953,0.0527 3.849352,-1.18706 6.967079,-4.03266 8.5,-7.75781 0.322999,-0.94818 0.570105,-1.9211 0.740235,-2.90821 0.120999,-0.67184 0.174832,-1.20675 0.195312,-1.4707 0.0685,-2.04518 -0.005,-3.93771 -0.283203,-5.80859 -0.23808,-1.1264 -0.637434,-1.59868 -1.537109,-1.99024 -0.740979,-0.18118 -1.779922,0.0379 -2.38086,0.50781 -0.407437,0.44829 -0.647741,1.02408 -0.681641,1.62891 -0.0464,0.5723 -0.0364,1.1464 0.0293,1.7168 0.0387,1.37873 0.05078,1.37279 0.05078,1.71484 -0.0274,0.6742 -0.109594,1.34505 -0.246093,2.00586 -0.128349,0.65509 -0.305444,1.3001 -0.527344,1.92969 -0.266697,0.81588 -0.641126,1.59109 -1.115235,2.30664 -1.376613,1.52392 -3.466353,2.18938 -5.470703,1.74219 -2.412818,-0.50235 -3.695553,-2.52966 -4.611328,-3.96094 -0.915755,-1.43129 -1.313534,-3.12578 -2.30664,-6.40234 -0.377247,-1.31555 -0.557848,-2.13196 -1.103516,-3.74219 -0.361317,-1.13376 -0.796506,-2.2434299 -1.302734,-3.3203099 -0.949865,-1.9854 -2.339359,-3.7284 -4.0625,-5.09766 -0.453467,-0.35166 -2.130583,-1.61734 -6.38086,-2.52734004 -1.95323,-0.43924 -3.652093,-0.63242 -11.439459,-0.73438 -1.14718,-0.0122 -3.76539,0.009 -8.9707,-0.0215 -0.80776,-0.0030000046 -1.56034,-0.004000005 -2.28515,-0.002 z m 24.82813,8.66992004 a 4.52,4.52 0 0 1 1.548828,0.24805 3.94,3.94 0 0 1 1.126953,0.60352 3.94,3.94 0 0 1 0.875,0.9296799 8,8 0 0 0 -2.203125,-0.6933499 5.52,5.52 0 0 0 -1.074219,-0.043 5.52,5.52 0 0 0 -1.0625,0.16601 7,7 0 0 0 -2.011719,0.9980499 7,7 0 0 0 -1.59375,1.58594 4.52,4.52 0 0 1 0.517579,-1.48047 4.52,4.52 0 0 1 0.990234,-1.2148499 4.52,4.52 0 0 1 1.347656,-0.80468 4.52,4.52 0 0 1 1.539063,-0.29493 z m -17.82618,0.375 a 9.93,9.93 0 0 1 0.65821,0.008 9.93,9.93 0 0 1 1.95312,0.28515 11,11 0 0 0 -2.80078,0.27735 11,11 0 0 0 -2.63867,0.9804699 10.24,10.24 0 0 0 -2.16993,1.58593 10.24,10.24 0 0 0 -1.68359,2.09766 7.08,7.08 0 0 0 -0.70313,1.55469 7.08,7.08 0 0 0 -0.3125,1.67773 7.08,7.08 0 0 0 0.0977,1.70313 8.8,8.8 0 0 0 0.89844,2.40429 8.8,8.8 0 0 0 1.55469,2.04297 15.35,15.35 0 0 0 1.94726,1.87305 15.35,15.35 0 0 0 2.24415,1.50195 6.5,6.5 0 0 0 1.58007,0.60938 6.5,6.5 0 0 0 1.68555,0.17968 6.5,6.5 0 0 0 1.67383,-0.26171 8.88,8.88 0 0 0 1.62891,-0.73438 8.88,8.88 0 0 0 1.44726,-1.04687 8.88,8.88 0 0 0 1.21094,-1.31446 14.1,14.1 0 0 0 1.498049,-2.39843 14.1,14.1 0 0 0 0.990235,-2.6504 12.05,12.05 0 0 1 -0.496094,2.90821 12.05,12.05 0 0 1 -1.1875,2.70117 9.4,9.4 0 0 1 -1.21875,1.66211 9.4,9.4 0 0 1 -1.54882,1.35742 9.4,9.4 0 0 1 -1.81056,0.98633 7.27,7.27 0 0 1 -1.55664,0.42969 7.27,7.27 0 0 1 -1.61523,0.0762 8.8,8.8 0 0 1 -1.57813,-0.24414 8.8,8.8 0 0 1 -1.50586,-0.52735 16.52,16.52 0 0 1 -2.58985,-1.63086 16.52,16.52 0 0 1 -2.24218,-2.08007 10.62,10.62 0 0 1 -1.33399,-1.6543 10.62,10.62 0 0 1 -0.97656,-1.88477 10.62,10.62 0 0 1 -0.58203,-2.04297 8.43,8.43 0 0 1 -0.0254,-2.13281 8.43,8.43 0 0 1 0.51367,-2.06836 8.43,8.43 0 0 1 1.01367,-1.875 10.59,10.59 0 0 1 1.33399,-1.54883 10.59,10.59 0 0 1 1.60742,-1.26367 10.59,10.59 0 0 1 1.81836,-0.9316399 9.93,9.93 0 0 1 1.91016,-0.49609 9.93,9.93 0 0 1 1.31054,-0.11524 z m 17.640633,4.2929699 a 3.86,3.86 0 0 1 1.623047,0.31055 4.39,4.39 0 0 1 1.28125,0.85156 4.39,4.39 0 0 1 0.910156,1.24219 4.24,4.24 0 0 1 0.09961,0.21094 4.24,4.24 0 0 1 0.08789,0.21679 4.24,4.24 0 0 1 0.07617,0.22266 4.24,4.24 0 0 1 0.06445,0.22461 4.24,4.24 0 0 1 0.05078,0.22852 4.24,4.24 0 0 1 0.03906,0.23242 4.24,4.24 0 0 1 0.02539,0.23242 4.24,4.24 0 0 1 0.01367,0.23437 4.24,4.24 0 0 1 0,0.23438 4.24,4.24 0 0 1 -0.01367,0.23242 4.24,4.24 0 0 1 -0.02539,0.23438 4.24,4.24 0 0 1 -0.03906,0.23046 4.24,4.24 0 0 1 -0.05078,0.22852 3.86,3.86 0 0 1 -0.671875,1.41016 3.86,3.86 0 0 1 -1.175781,1.02929 4.1,4.1 0 0 1 -1.507813,0.49024 4.1,4.1 0 0 1 -1.582031,-0.11914 4.23,4.23 0 0 1 -1.455078,-0.74219 4.23,4.23 0 0 1 -1.066406,-1.24023 4.31,4.31 0 0 1 -0.513672,-1.58399 4.31,4.31 0 0 1 0.126953,-1.66016 4.11,4.11 0 0 1 0.78125,-1.49804 4.11,4.11 0 0 1 1.316406,-1.05664 3.86,3.86 0 0 1 1.605469,-0.39649 z m 0.992187,0.75977 a 3.9,3.9 0 0 0 -0.896484,0.0547 3.9,3.9 0 0 0 -1.257812,0.45898 3.55,3.55 0 0 0 -1.007813,0.82227 3.55,3.55 0 0 0 -0.644531,1.13281 3.36,3.36 0 0 0 -0.181641,1.30664 3.36,3.36 0 0 0 0.335938,1.27539 3.47,3.47 0 0 0 0.822265,1.06641 3.47,3.47 0 0 0 1.167969,0.67187 3.54,3.54 0 0 0 1.388672,0.16992 3.54,3.54 0 0 0 1.34375,-0.38086 3.79,3.79 0 0 0 1.136719,-0.83789 3.79,3.79 0 0 0 0.75,-1.19336 3.45,3.45 0 0 0 0.07617,-0.23242 3.45,3.45 0 0 0 0.05859,-0.24023 3.45,3.45 0 0 0 0.04297,-0.24219 3.45,3.45 0 0 0 0.02539,-0.24414 3.45,3.45 0 0 0 0.0059,-0.24609 3.45,3.45 0 0 0 -0.0098,-0.2461 3.45,3.45 0 0 0 -0.02734,-0.24414 3.45,3.45 0 0 0 -0.04687,-0.24219 3.45,3.45 0 0 0 -0.0625,-0.23828 3.45,3.45 0 0 0 -0.07813,-0.23242 3.45,3.45 0 0 0 -0.03125,-0.0723 1.9023081,1.9023081 0 0 1 0.09961,0.94532 1.9023081,1.9023081 0 0 1 -2.166016,1.5957 1.9023081,1.9023081 0 0 1 -1.595703,-2.16797 1.9023081,1.9023081 0 0 1 1.896485,-1.61523 1.9023081,1.9023081 0 0 1 0.269531,0.0215 1.9023081,1.9023081 0 0 1 1.431641,1.06446 3.45,3.45 0 0 0 -0.111329,-0.21876 3.31,3.31 0 0 0 -0.960937,-1.07617 3.31,3.31 0 0 0 -1.328125,-0.5664 3.9,3.9 0 0 0 -0.445313,-0.0488 z m 2.910157,2.0664 a 1.9023081,1.9023081 0 0 0 -0.05664,-0.13867 3.45,3.45 0 0 1 0.05664,0.13867 z" />
</svg>
